<svg viewBox="0 0 1000 422" fill="none"
    xmlns="http://www.w3.org/2000/svg">
    <path fill-rule="evenodd" clip-rule="evenodd" d="M656.019 337.936C637.46 343.115 613.291 345.273 592.574 345.273C538.627 345.273 503.236 317.22 503.236 265.86C503.236 217.09 536.469 185.584 584.806 185.584C595.595 185.584 607.248 186.879 614.154 190.332V119.55H656.019V337.936ZM614.154 226.585C607.68 223.564 598.617 221.838 588.258 221.838C562.796 221.838 545.964 237.375 545.964 264.566C545.964 293.482 564.091 309.883 593.869 309.883C599.048 309.883 607.248 309.883 614.154 308.156V226.585ZM1000 337.936C981.442 343.115 957.272 345.273 936.124 345.273C882.606 345.273 846.784 317.22 846.784 265.86C846.784 217.09 880.017 185.584 928.355 185.584C939.577 185.584 950.798 186.879 957.704 190.332V119.55H1000V337.936ZM957.704 226.585C951.23 223.564 942.598 221.838 932.24 221.838C906.344 221.838 889.512 237.375 889.512 264.566C889.512 293.482 908.07 309.883 937.85 309.883C943.03 309.883 950.798 309.883 957.704 308.156V226.585ZM722.053 226.585C728.958 223.564 738.885 222.701 747.085 222.701C772.981 222.701 790.676 237.375 790.676 263.702C790.676 294.777 770.823 309.019 744.496 309.451V345.273H746.654C801.035 345.273 833.404 315.493 833.404 262.408C833.404 214.069 798.877 185.584 747.948 185.584C722.053 185.584 696.589 191.627 679.756 198.532V403.538H722.053V226.585Z" fill="#3F3F42"/>
    <path fill-rule="evenodd" clip-rule="evenodd" d="M348.727 85.8871L355.632 93.6558L359.516 91.4978L348.727 85.8871Z" fill="#DC0032"/>
    <path fill-rule="evenodd" clip-rule="evenodd" d="M338.369 80.2761L351.748 95.8135L356.495 93.224L351.316 87.1816L338.369 80.2761Z" fill="#DC0032"/>
    <path fill-rule="evenodd" clip-rule="evenodd" d="M327.579 74.6652L347.864 97.9713L352.611 95.3817L340.958 81.5707L327.579 74.6652Z" fill="#DC0032"/>
    <path fill-rule="evenodd" clip-rule="evenodd" d="M317.22 69.0543L343.979 100.129L348.727 97.5395L330.168 75.9598L317.22 69.0543ZM368.579 123.866L365.558 125.593L368.579 129.045V123.866Z" fill="#DC0032"/>
    <path fill-rule="evenodd" clip-rule="evenodd" d="M306.861 63.4433L340.094 102.287L344.842 99.6973L319.809 70.3488L306.861 63.4433ZM366.852 124.729L362.105 127.75L368.579 135.519V127.319L366.852 124.729Z" fill="#DC0032"/>
    <path fill-rule="evenodd" clip-rule="evenodd" d="M296.072 57.8323L336.21 104.445L341.389 101.855L309.451 64.7379L296.072 57.8323ZM362.968 126.887L358.221 129.908L368.579 141.993V133.793L362.968 126.887Z" fill="#DC0032"/>
    <path fill-rule="evenodd" clip-rule="evenodd" d="M285.714 52.2214L332.758 106.602L337.505 104.013L298.662 59.1267L285.714 52.2214ZM359.084 129.476L354.337 132.066L368.58 148.898V140.698L359.084 129.476Z" fill="#DC0032"/>
    <path fill-rule="evenodd" clip-rule="evenodd" d="M275.355 46.6105L328.873 108.76L333.621 106.17L288.303 53.5159L275.355 46.6105ZM355.2 131.634L350.452 134.224L368.579 155.372V147.171L355.2 131.634Z" fill="#DC0032"/>
    <path fill-rule="evenodd" clip-rule="evenodd" d="M264.566 40.9995L324.989 110.918L329.736 108.328L277.945 47.905L264.566 40.9995ZM351.315 133.792L346.568 136.381L368.579 161.845V153.645L351.315 133.792Z" fill="#DC0032"/>
    <path fill-rule="evenodd" clip-rule="evenodd" d="M254.208 35.3912L321.104 113.51L325.852 110.488L267.155 42.2967L254.208 35.3912ZM347.431 135.952L342.684 138.542L368.579 168.753V160.553L347.431 135.952Z" fill="#DC0032"/>
    <path fill-rule="evenodd" clip-rule="evenodd" d="M243.417 29.7802L317.22 115.667L321.967 112.646L256.797 36.6857L243.417 29.7802ZM343.979 138.11L338.799 140.699L368.579 175.227V167.027L343.979 138.11Z" fill="#DC0032"/>
    <path fill-rule="evenodd" clip-rule="evenodd" d="M233.06 24.1693L313.336 117.825L318.515 114.804L246.439 31.0748L233.06 24.1693ZM340.095 140.267L335.347 142.857L368.579 182.132V173.5L340.095 140.267Z" fill="#DC0032"/>
    <path fill-rule="evenodd" clip-rule="evenodd" d="M222.701 18.5583L309.883 119.982L314.63 116.961L235.649 25.4638L222.701 18.5583ZM336.21 142.425L331.463 145.015L368.579 188.606V180.406L336.21 142.425Z" fill="#DC0032"/>
    <path fill-rule="evenodd" clip-rule="evenodd" d="M211.912 12.518L305.999 122.142L310.746 119.121L225.291 19.8551L211.912 12.518ZM332.326 144.585L327.579 147.175L368.58 195.081V186.881L332.326 144.585Z" fill="#DC0032"/>
    <path fill-rule="evenodd" clip-rule="evenodd" d="M201.553 6.90704L302.114 124.3L306.861 121.71L214.932 14.2441L201.553 6.90704ZM328.441 146.743L323.694 149.332L368.579 201.986V193.355L328.441 146.743Z" fill="#DC0032"/>
    <path fill-rule="evenodd" clip-rule="evenodd" d="M191.196 1.72815L298.23 126.458L302.978 123.868L204.143 8.63363L191.196 1.72815ZM324.558 148.901L319.81 151.491L368.58 208.461V200.26L324.558 148.901Z" fill="#DC0032"/>
    <path fill-rule="evenodd" clip-rule="evenodd" d="M184.29 6.10352e-05L294.346 128.614L299.093 126.025L193.785 3.0212L191.196 1.72643C189.038 0.431653 186.88 6.10352e-05 184.29 6.10352e-05ZM320.673 151.057L315.925 153.647L368.579 214.933V206.732L320.673 151.057Z" fill="#DC0032"/>
    <path fill-rule="evenodd" clip-rule="evenodd" d="M184.29 6.10352e-05C182.564 6.10352e-05 180.837 0.431653 179.111 0.863246L290.461 130.772L295.64 128.183L185.585 6.10352e-05C185.153 6.10352e-05 184.722 6.10352e-05 184.29 6.10352e-05ZM317.22 153.215L312.473 155.805L368.579 221.838V213.206L317.22 153.215Z" fill="#DC0032"/>
    <path fill-rule="evenodd" clip-rule="evenodd" d="M180.405 0.432068C179.542 0.863661 178.247 1.29525 177.816 1.72685L175.226 3.02162L287.008 132.931L291.756 130.341L180.405 0.432068ZM313.335 155.374L308.588 158.395L368.579 228.313V220.112L313.335 155.374Z" fill="#DC0032"/>
    <path fill-rule="evenodd" clip-rule="evenodd" d="M176.089 2.15753L171.342 4.74709L283.124 135.088L287.871 132.498L176.089 2.15753ZM309.451 157.531L304.704 160.552L368.579 234.786V226.585L309.451 157.531Z" fill="#DC0032"/>
    <path fill-rule="evenodd" clip-rule="evenodd" d="M172.206 4.31494L167.458 6.90449L279.24 137.245L283.988 134.656L172.206 4.31494ZM305.567 159.688L300.82 162.709L368.58 241.691V233.49L305.567 159.688Z" fill="#DC0032"/>
    <path fill-rule="evenodd" clip-rule="evenodd" d="M168.321 6.47504L163.574 9.06461L275.356 139.405L280.103 136.816L168.321 6.47504ZM301.683 161.848L296.935 164.869L368.58 248.167V239.966L301.683 161.848Z" fill="#DC0032"/>
    <path fill-rule="evenodd" clip-rule="evenodd" d="M164.437 8.63251L159.689 11.2221L271.472 141.563L276.218 138.973L164.437 8.63251ZM297.798 164.006L293.051 167.027L368.579 254.64V246.44L297.798 164.006Z" fill="#DC0032"/>
    <path fill-rule="evenodd" clip-rule="evenodd" d="M160.552 10.7899L155.805 13.3794L267.587 143.72L272.334 141.131L160.552 10.7899ZM294.346 166.163L289.598 169.184L368.579 261.545V253.345L294.346 166.163Z" fill="#DC0032"/>
    <path fill-rule="evenodd" clip-rule="evenodd" d="M156.668 12.518L151.92 15.5392L264.135 145.88L268.882 143.29L156.668 12.518ZM290.461 168.754L285.714 171.344L368.579 268.021V259.82L290.461 168.754Z" fill="#DC0032"/>
    <path fill-rule="evenodd" clip-rule="evenodd" d="M152.784 14.6728L148.036 17.2624L260.25 148.035L264.998 145.445L152.784 14.6728ZM286.577 170.909L281.829 173.499L368.58 274.923V266.291L286.577 170.909Z" fill="#DC0032"/>
    <path fill-rule="evenodd" clip-rule="evenodd" d="M148.899 16.8329L144.151 19.4225L256.366 150.626L261.113 147.605L148.899 16.8329ZM282.692 173.069L277.945 175.659L368.579 281.399V273.198L282.692 173.069Z" fill="#DC0032"/>
    <path fill-rule="evenodd" clip-rule="evenodd" d="M145.015 18.9904L140.267 21.5799L252.481 152.784L257.229 149.763L145.015 18.9904ZM278.808 175.227L274.06 177.816L368.579 287.872V279.672L278.808 175.227Z" fill="#DC0032"/>
    <path fill-rule="evenodd" clip-rule="evenodd" d="M141.13 21.1478L136.383 23.7374L248.597 154.941L253.345 151.92L141.13 21.1478ZM274.924 177.384L270.177 179.974L368.579 294.777V286.145L274.924 177.384Z" fill="#DC0032"/>
    <path fill-rule="evenodd" clip-rule="evenodd" d="M137.246 23.3079L132.499 25.8974L244.713 157.101L249.46 154.08L137.246 23.3079ZM271.472 179.544L266.724 182.134L368.579 301.253V293.053L271.472 179.544Z" fill="#DC0032"/>
    <path fill-rule="evenodd" clip-rule="evenodd" d="M133.362 25.0307L128.183 27.6202L241.26 159.256L246.008 156.235L133.362 25.0307ZM267.587 181.699L262.84 184.288L368.579 307.723V299.523L267.587 181.699Z" fill="#DC0032"/>
    <path fill-rule="evenodd" clip-rule="evenodd" d="M129.477 27.1908L124.298 29.7803L237.807 161.848C238.239 160.984 238.67 160.553 239.534 160.121L242.123 158.395L129.477 27.1908ZM263.703 183.859L258.955 186.448L367.716 313.336C368.148 312.042 368.579 310.747 368.579 309.452V305.999L263.703 183.859Z" fill="#DC0032"/>
    <path fill-rule="evenodd" clip-rule="evenodd" d="M125.593 29.3482L120.414 31.9378L236.513 167.026V165.3C236.513 164.005 237.376 162.279 238.239 160.984L125.593 29.3482ZM259.819 186.016L256.366 188.174C255.934 188.174 255.503 188.606 255.071 188.606L365.558 317.652C366.853 315.925 367.716 314.199 368.148 312.473L259.819 186.016Z" fill="#DC0032"/>
    <path fill-rule="evenodd" clip-rule="evenodd" d="M121.708 31.5057L116.53 34.0952L236.512 173.931V165.299L121.708 31.5057ZM247.734 186.447L362.537 320.672C363.832 319.809 365.126 318.083 366.421 316.788L255.934 188.174C254.207 189.037 251.618 189.037 249.892 188.174L247.734 186.447Z" fill="#DC0032"/>
    <path fill-rule="evenodd" clip-rule="evenodd" d="M117.824 33.6658L112.646 36.2553L358.652 322.833L362.105 321.106C362.537 320.674 362.968 320.243 363.4 319.811L250.323 188.176H249.892L239.965 182.134C239.102 181.702 238.67 180.839 237.807 179.976C236.944 178.681 236.944 177.818 236.512 176.954V172.207L117.824 33.6658Z" fill="#DC0032"/>
    <path fill-rule="evenodd" clip-rule="evenodd" d="M113.941 35.8206L108.762 38.4101L354.769 324.987L359.516 322.398L113.941 35.8206Z" fill="#DC0032"/>
    <path fill-rule="evenodd" clip-rule="evenodd" d="M110.057 37.5486L104.877 40.1382L351.316 327.147L356.064 324.557L110.057 37.5486Z" fill="#DC0032"/>
    <path fill-rule="evenodd" clip-rule="evenodd" d="M106.172 39.7061L100.993 42.2956L347.432 329.305L352.179 326.715L106.172 39.7061Z" fill="#DC0032"/>
    <path fill-rule="evenodd" clip-rule="evenodd" d="M102.288 41.8635L97.1084 44.453L343.548 331.462L348.295 328.872L102.288 41.8635Z" fill="#DC0032"/>
    <path fill-rule="evenodd" clip-rule="evenodd" d="M97.9717 44.0236L93.2241 46.6132L339.663 334.054L344.411 331.033L97.9717 44.0236Z" fill="#DC0032"/>
    <path fill-rule="evenodd" clip-rule="evenodd" d="M94.0874 46.1784L89.3398 48.768L335.779 336.208L340.527 333.187L94.0874 46.1784Z" fill="#DC0032"/>
    <path fill-rule="evenodd" clip-rule="evenodd" d="M90.2026 48.3385L85.4551 50.928L332.326 338.369L337.073 335.347L90.2026 48.3385Z" fill="#DC0032"/>
    <path fill-rule="evenodd" clip-rule="evenodd" d="M86.3183 50.0666L81.5708 52.6561L328.442 340.528L333.189 337.507L86.3183 50.0666Z" fill="#DC0032"/>
    <path fill-rule="evenodd" clip-rule="evenodd" d="M82.4341 52.2214L77.6865 54.8109L324.557 342.683L329.305 340.094L82.4341 52.2214Z" fill="#DC0032"/>
    <path fill-rule="evenodd" clip-rule="evenodd" d="M78.5498 54.3815L73.8022 56.971L193.785 196.807L197.669 199.396C199.395 200.259 201.122 202.417 201.122 204.575V205.007L320.673 344.843L325.421 342.254L78.5498 54.3815Z" fill="#DC0032"/>
    <path fill-rule="evenodd" clip-rule="evenodd" d="M74.665 56.5389L69.9175 59.1283L182.563 190.764L196.805 198.532L74.665 56.5389ZM200.69 203.28C200.69 203.712 201.121 204.143 201.121 204.575V211.912L316.788 347.001L321.536 344.411L200.69 203.28Z" fill="#DC0032"/>
    <path fill-rule="evenodd" clip-rule="evenodd" d="M70.7808 58.6964L66.0332 61.2859L171.342 184.29L185.584 192.059L70.7808 58.6964ZM201.121 210.185V218.385L313.336 349.158L318.083 346.569L201.121 210.185Z" fill="#DC0032"/>
    <path fill-rule="evenodd" clip-rule="evenodd" d="M66.8965 60.8538L62.1489 63.4434L160.552 177.816L174.363 185.584L66.8965 60.8538ZM201.121 216.659V225.29L309.451 351.315L314.199 348.726L201.121 216.659Z" fill="#DC0032"/>
    <path fill-rule="evenodd" clip-rule="evenodd" d="M63.0117 62.5793L58.2642 65.1689L149.33 171.341L163.141 179.541L63.0117 62.5793ZM201.121 223.563V231.763L305.566 353.472L310.314 350.883L201.121 223.563Z" fill="#DC0032"/>
    <path fill-rule="evenodd" clip-rule="evenodd" d="M59.1282 64.7393L54.3809 67.3289L138.11 164.869L151.921 173.069L59.1282 64.7393ZM201.122 230.039V238.239L301.683 355.632L306.431 353.043L201.122 230.039Z" fill="#DC0032"/>
    <path fill-rule="evenodd" clip-rule="evenodd" d="M55.2441 66.8968L50.4966 69.4864L126.888 158.826L140.699 166.595L55.2441 66.8968ZM201.122 236.513V245.144L297.799 358.221L302.546 355.2L201.122 236.513Z" fill="#DC0032"/>
    <path fill-rule="evenodd" clip-rule="evenodd" d="M51.3593 69.0543L46.6118 71.6438L115.667 152.352L129.477 160.12L51.3593 69.0543ZM201.122 243.418V251.618L294.345 360.379L299.093 357.358L201.122 243.418Z" fill="#DC0032"/>
    <path fill-rule="evenodd" clip-rule="evenodd" d="M47.475 71.2144L42.7275 73.8039L104.445 145.88L118.687 153.648L47.475 71.2144ZM201.122 249.894V258.094L290.461 362.539L295.209 359.518L201.122 249.894Z" fill="#DC0032"/>
    <path fill-rule="evenodd" clip-rule="evenodd" d="M43.5908 73.3691L38.8433 75.9587L93.224 139.403L107.467 147.603L43.5908 73.3691ZM156.668 213.205L167.889 226.153V221.405C167.889 220.542 167.026 219.247 166.163 218.816L156.668 213.205ZM201.122 256.364V264.996L286.577 364.694L291.324 361.672L201.122 256.364Z" fill="#DB0032"/>
    <path fill-rule="evenodd" clip-rule="evenodd" d="M39.7065 75.0972L34.959 77.6868L82.0025 132.93L96.2452 141.131L39.7065 75.0972ZM145.446 206.733L167.889 232.628V224.428L159.689 214.933L145.446 206.733ZM201.122 263.272V271.472L282.693 366.853L287.44 364.264L201.122 263.272Z" fill="#DC0032"/>
    <path fill-rule="evenodd" clip-rule="evenodd" d="M35.8222 77.2546L31.0747 79.8442L71.2127 126.888L85.0238 134.656L35.8222 77.2546ZM134.225 200.69L167.889 239.533V231.333L148.468 208.458L134.225 200.69ZM201.122 269.745V277.945L278.808 369.011L283.556 366.421L201.122 269.745Z" fill="#DC0032"/>
    <path fill-rule="evenodd" clip-rule="evenodd" d="M31.9384 79.4121L27.1909 82.0017L59.9917 120.413L73.8028 128.182L31.9384 79.4121ZM123.436 194.216L167.89 246.007V237.806L137.247 201.984L123.436 194.216ZM201.122 276.649V284.85L275.356 371.168L280.104 368.579L201.122 276.649Z" fill="#DC0032"/>
    <path fill-rule="evenodd" clip-rule="evenodd" d="M28.0527 81.5722L23.3052 84.1618L48.7691 113.942L62.5799 121.71L28.0527 81.5722ZM112.213 187.744L167.889 252.483V244.282L126.024 195.944L112.213 187.744ZM201.121 283.125V291.326L271.471 373.328L276.218 370.739L201.121 283.125Z" fill="#DC0032"/>
    <path fill-rule="evenodd" clip-rule="evenodd" d="M24.1699 83.727L19.4224 86.3166L37.5492 107.465L51.3601 115.665L24.1699 83.727ZM100.993 181.267L167.89 259.385V251.185L114.804 189.467L100.993 181.267ZM201.122 289.596V297.797L267.588 375.483L272.335 372.894L201.122 289.596Z" fill="#DC0032"/>
    <path fill-rule="evenodd" clip-rule="evenodd" d="M20.2851 85.8871L15.5376 88.4767L26.3274 100.993L40.5699 109.193L20.2851 85.8871ZM89.7715 175.227L167.89 265.861V257.661L103.583 182.995L89.7715 175.227ZM201.122 296.504V304.704L263.703 377.643L268.451 375.054L201.122 296.504Z" fill="#DC0032"/>
    <path fill-rule="evenodd" clip-rule="evenodd" d="M16.4008 87.6152L11.2217 90.2048L15.106 94.9523L29.3485 102.721L16.4008 87.6152ZM78.55 168.755L167.89 272.768V264.136L92.7926 176.523L78.55 168.755ZM201.122 302.979V311.18L259.819 380.234L264.566 377.213L201.122 302.979Z" fill="#DC0032"/>
    <path fill-rule="evenodd" clip-rule="evenodd" d="M12.5162 89.77L9.49512 91.4963L18.127 96.2439L12.5162 89.77ZM67.3284 162.277L167.889 279.239V271.039L81.571 170.478L67.3284 162.277ZM201.122 309.45V318.082L256.366 382.389L261.113 379.368L201.122 309.45Z" fill="#DC0032"/>
    <path fill-rule="evenodd" clip-rule="evenodd" d="M56.5381 155.805L167.889 285.714V277.514L70.349 164.006L56.5381 155.805ZM201.121 316.358V324.558L252.481 384.549L257.229 381.528L201.121 316.358Z" fill="#DC0032"/>
    <path fill-rule="evenodd" clip-rule="evenodd" d="M45.3169 149.762L167.889 292.619V283.987L59.1277 157.531L45.3169 149.762ZM201.121 322.831V331.031L248.597 386.706L253.344 383.685L201.121 322.831Z" fill="#DC0032"/>
    <path fill-rule="evenodd" clip-rule="evenodd" d="M34.0952 143.287L167.889 299.092V290.892L47.9061 151.056L34.0952 143.287ZM201.121 329.304V337.936L244.712 388.863L249.46 386.274L201.121 329.304Z" fill="#DC0032"/>
    <path fill-rule="evenodd" clip-rule="evenodd" d="M22.8745 136.815L167.89 305.568V297.367L36.6854 145.015L22.8745 136.815ZM201.122 336.211V344.411L240.829 391.023L245.576 388.433L201.122 336.211Z" fill="#DB0032"/>
    <path fill-rule="evenodd" clip-rule="evenodd" d="M11.6533 130.34L167.89 312.472V304.272L25.4642 138.54L11.6533 130.34ZM201.122 342.684V350.883L237.376 393.18L242.123 390.59L201.122 342.684Z" fill="#DA0032"/>
    <path fill-rule="evenodd" clip-rule="evenodd" d="M0.432129 124.3L167.89 318.948V310.748L14.6747 132.068L0.432129 124.3ZM201.122 349.16V357.791L233.492 395.34L238.239 392.75L201.122 349.16Z" fill="#D90032"/>
    <path fill-rule="evenodd" clip-rule="evenodd" d="M0 123.868V129.91L167.889 325.422V317.221L3.45274 125.594L0 123.868ZM201.122 356.064V361.243C201.122 362.106 200.69 362.97 200.258 363.401L229.607 397.497L234.354 394.908L201.122 356.064Z" fill="#D80032"/>
    <path fill-rule="evenodd" clip-rule="evenodd" d="M0 128.183V136.815L167.889 332.326V324.126L0 128.183ZM200.69 362.537C200.258 364.264 198.964 365.99 197.669 366.421L197.237 366.853L225.723 399.654L230.47 397.065L200.69 362.537Z" fill="#D70032"/>
    <path fill-rule="evenodd" clip-rule="evenodd" d="M0 135.09V143.29L167.889 338.801V330.601L0 135.09ZM198.1 365.991C198.1 366.423 198.1 366.423 197.669 366.423L193.354 369.013L221.838 401.814L226.586 399.224L198.1 365.991Z" fill="#D60032"/>
    <path fill-rule="evenodd" clip-rule="evenodd" d="M0 141.562V149.762L167.889 345.274V337.073L0 141.562ZM194.648 368.148L189.469 371.169L218.385 404.402L223.133 401.38L194.648 368.148Z" fill="#D50032"/>
    <path fill-rule="evenodd" clip-rule="evenodd" d="M0 148.466V156.667L167.889 352.178V343.978L0 148.466ZM190.764 370.305L187.743 372.031C186.88 372.463 186.016 372.463 185.153 372.463L214.501 406.559L219.249 403.537L190.764 370.305Z" fill="#D40032"/>
    <path fill-rule="evenodd" clip-rule="evenodd" d="M0 154.941V163.142L167.889 358.653V350.452L0 154.941ZM177.384 370.306L210.617 408.718L215.364 405.696L186.448 372.464C186.016 372.464 185.153 372.895 184.722 372.895H184.29C182.995 372.895 182.132 372.464 181.269 372.032L177.384 370.306Z" fill="#D30032"/>
    <path fill-rule="evenodd" clip-rule="evenodd" d="M0 161.416V170.048L206.732 410.877L211.48 407.855L180.406 371.601L170.911 366.422C169.184 365.559 167.889 363.401 167.889 361.243V356.927L0 161.416Z" fill="#D20032"/>
    <path fill-rule="evenodd" clip-rule="evenodd" d="M0 168.321V176.521L202.848 413.033L207.596 410.444L0 168.321Z" fill="#D10032"/>
    <path fill-rule="evenodd" clip-rule="evenodd" d="M0 174.796V182.996L198.964 415.192L203.711 412.603L0 174.796Z" fill="#D00032"/>
    <path fill-rule="evenodd" clip-rule="evenodd" d="M0 181.268V189.9L195.511 417.349L200.258 414.759L0 181.268Z" fill="#CF0032"/>
    <path fill-rule="evenodd" clip-rule="evenodd" d="M0 188.175V196.375L191.627 419.508L196.374 416.919L0 188.175Z" fill="#CE0032"/>
    <path fill-rule="evenodd" clip-rule="evenodd" d="M0 194.647V202.848L187.311 421.234C188.606 420.802 189.901 420.371 191.196 419.939L192.49 419.076L0 194.647Z" fill="#CD0032"/>
    <path fill-rule="evenodd" clip-rule="evenodd" d="M0 201.122V209.754L181.7 421.235C182.564 421.235 183.427 421.235 184.29 421.235C185.585 421.235 186.88 421.235 188.174 420.803L0 201.122Z" fill="#CC0032"/>
    <path fill-rule="evenodd" clip-rule="evenodd" d="M0 208.027V216.227L171.774 416.486L177.816 419.939C179.111 420.802 181.269 421.234 182.995 421.234L0 208.027Z" fill="#CB0032"/>
    <path fill-rule="evenodd" clip-rule="evenodd" d="M0 214.502V222.702L160.552 410.013L174.795 418.213L0 214.502Z" fill="#CA0032"/>
    <path fill-rule="evenodd" clip-rule="evenodd" d="M0 221.409V229.609L149.331 403.541L163.573 411.741L0 221.409Z" fill="#C90032"/>
    <path fill-rule="evenodd" clip-rule="evenodd" d="M0 227.881V236.081L138.109 397.065L151.92 405.265L0 227.881Z" fill="#C80033"/>
    <path fill-rule="evenodd" clip-rule="evenodd" d="M0 234.353V242.554L126.888 390.59L140.699 398.79L0 234.353Z" fill="#C70033"/>
    <path fill-rule="evenodd" clip-rule="evenodd" d="M0 241.26V249.461L115.235 383.686L129.477 391.886L0 241.26Z" fill="#C60033"/>
    <path fill-rule="evenodd" clip-rule="evenodd" d="M0 247.735V255.936L104.014 377.213L118.256 385.413L0 247.735Z" fill="#C50033"/>
    <path fill-rule="evenodd" clip-rule="evenodd" d="M0 254.208V262.408L92.7924 370.737L107.035 378.938L0 254.208Z" fill="#C40033"/>
    <path fill-rule="evenodd" clip-rule="evenodd" d="M0 261.112V269.312L81.5709 364.262L95.8136 372.462L0 261.112Z" fill="#C30033"/>
    <path fill-rule="evenodd" clip-rule="evenodd" d="M0 267.587V275.787L70.3494 357.789L84.5921 365.99L0 267.587Z" fill="#C20033"/>
    <path fill-rule="evenodd" clip-rule="evenodd" d="M0 274.062V282.694L59.128 351.317L72.939 359.517L0 274.062Z" fill="#C10033"/>
    <path fill-rule="evenodd" clip-rule="evenodd" d="M0 280.966V289.167L47.4751 344.842L61.7175 353.042L0 280.966Z" fill="#C00033"/>
    <path fill-rule="evenodd" clip-rule="evenodd" d="M0 287.439V295.639L36.2537 338.367L50.4963 346.136L0 287.439Z" fill="#BF0033"/>
    <path fill-rule="evenodd" clip-rule="evenodd" d="M0 293.914V302.546L25.0323 331.462L39.2749 339.663L0 293.914Z" fill="#BE0033"/>
    <path fill-rule="evenodd" clip-rule="evenodd" d="M0 300.821V309.021L13.8109 324.99L28.0535 333.19L0 300.821Z" fill="#BD0033"/>
    <path fill-rule="evenodd" clip-rule="evenodd" d="M0 307.293V309.451C0 313.767 3.02114 318.946 6.47387 321.104L16.8321 326.715L0 307.293Z" fill="#BC0033"/>
    <path fill-rule="evenodd" clip-rule="evenodd" d="M2.58936 317.222C3.45254 318.085 3.88413 318.948 4.74731 319.38L2.58936 317.222Z" fill="#BB0033"/>
</svg>
