<svg viewBox="0 0 161 50" fill="none"
    xmlns="http://www.w3.org/2000/svg">
    <g id="Group">
        <path id="Vector" d="M146.42 47.8257L139.866 40.4762L133.37 47.8257H119.702L133.061 32.8171L119.702 17.8041H133.797L140.417 25.0972L146.787 17.8041H160.389L147.096 32.7541L160.573 47.8257H146.42ZM93.4551 47.8257V0.532227H119.702V11.0738H104.573V17.8041H119.702V27.9477H104.573V37.2575H119.702V47.8257H93.4551Z" fill="#FF5A00"/>
        <path id="Vector_2" d="M82.3786 0.532227V19.8872H82.2559C79.8046 17.07 76.7407 16.0881 73.1882 16.0881C65.9084 16.0881 60.4242 21.0405 58.4992 27.5828C56.3033 20.3726 50.6411 15.9532 42.2467 15.9532C35.4279 15.9532 30.0455 19.0126 27.2337 23.9993V17.803H13.1418V11.0749H28.5218V0.534441H0.580078V47.8257H13.1418V27.9477H25.6625C25.2769 29.4763 25.0841 31.0471 25.0887 32.6236C25.0887 42.4841 32.6239 49.4134 42.2445 49.4134C50.3315 49.4134 55.6653 45.6132 58.4837 38.6949H47.7176C46.2626 40.7769 45.1569 41.3917 42.2456 41.3917C38.871 41.3917 35.9587 38.4462 35.9587 34.9588H57.88C58.8309 42.7926 64.9342 49.5472 73.3109 49.5472C76.9243 49.5472 80.2325 47.7704 82.2548 44.7685H82.3764V47.8323H93.4521V0.534441H82.3786V0.532227ZM36.3081 28.0892C37.008 25.084 39.3376 23.1203 42.2456 23.1203C45.4477 23.1203 47.659 25.0231 48.2395 28.0892H36.3081ZM75.6572 40.6288C71.5761 40.6288 69.0397 36.8263 69.0397 32.8547C69.0397 28.6089 71.2466 24.53 75.6572 24.53C80.2336 24.53 82.0569 28.6111 82.0569 32.8547C82.0569 36.8772 80.1264 40.6288 75.6572 40.6288Z" fill="#29007C"/>
    </g>
</svg>
