<svg xmlns="http://www.w3.org/2000/svg" xml:space="preserve" viewBox="126.39 123.73 1107.56 376.16"><defs><clipPath id="a" clipPathUnits="userSpaceOnUse"><path d="M0 467.2h1018.382V0H0Z"/></clipPath></defs><g clip-path="url(#a)" transform="matrix(1.3333 0 0 -1.3333 0 622.93333)"><path fill="#ffd100" d="M879.0624 186.3004c25.627 0 46.4-20.774 46.4-46.4 0-25.626-20.773-46.401-46.4-46.401-25.626 0-46.399 20.775-46.399 46.401 0 25.626 20.773 46.4 46.399 46.4"/><path fill="#061ab1" d="M228.2475 242.9767v-60.711h50.511c-7.378-11.581-24.015-17.747-35.302-17.747-38.021 0-57.033 21.673-57.033 65.398 0 48.288 25.095 73.002 74.903 73.002 19.772 0 45.627-4.942 73.382-13.688v72.622c-7.984 3.421-20.151 6.083-35.74 8.745-15.97 2.662-30.037 3.802-42.204 3.802-49.429 0-88.591-13.308-117.868-39.923-29.277-26.615-44.106-62.355-44.106-107.602 0-41.443 11.407-74.143 34.22-98.096 22.813-24.334 53.611-36.501 92.393-36.501 38.944 0 74.725 20.213 86.255 45.867l-.249-41.304h56.328v146.136ZM391.5277 96.8404v272.997h87.45v-201.896h95.434v-71.101zm210.65 6.8438v74.522c12.928-4.181 28.137-7.604 45.247-10.645 17.109-3.042 31.938-4.564 44.485-4.564 21.292 0 32.319 5.324 32.319 14.83 0 6.084-3.422 9.126-19.011 12.547l-30.417 6.844c-52.091 11.786-76.425 38.022-76.425 82.507 0 29.277 10.266 52.471 30.418 69.58 20.152 16.73 48.288 25.095 83.648 25.095 24.334 0 61.595-4.944 84.408-10.646v-71.101c-11.786 3.041-25.855 6.083-42.964 8.745-17.11 2.661-30.417 3.802-40.304 3.802-18.63 0-29.276-5.323-29.276-14.829 0-5.703 4.942-9.505 15.208-12.166l35.361-8.365c51.709-12.167 75.663-38.783 75.663-84.029 0-28.897-10.646-51.709-31.558-68.439-20.911-16.73-49.809-25.094-86.69-25.094-34.98 0-70.34 4.943-90.112 11.406"/></g></svg>
