<svg viewBox="0 0 160 23" fill="none"
    xmlns="http://www.w3.org/2000/svg">
    <path fill-rule="evenodd" clip-rule="evenodd" d="M147.114 16.9768L145.458 22.535H114.512L121.025 0.620605H133.094L128.237 16.9768H147.114Z" fill="#004B93"/>
    <path fill-rule="evenodd" clip-rule="evenodd" d="M58.3968 10.3141H49.6766L51.3324 4.7911H59.9797C61.5615 4.7911 63.034 6.0379 62.5547 7.5702C62.1506 8.9946 60.9365 10.1355 58.3968 10.3141ZM63.8434 0.621338H40.4772L34.002 22.5353H46.0696L48.4249 14.4828H59.9796C66.5659 14.4828 72.5646 11.6679 73.7053 7.8189C74.661 4.6848 71.7906 0.621338 63.8434 0.621338Z" fill="#004B93"/>
    <path fill-rule="evenodd" clip-rule="evenodd" d="M98.6512 10.3141H89.931L91.5874 4.7911H100.271C101.853 4.7911 103.288 6.0379 102.846 7.5702C102.405 8.9946 101.19 10.1355 98.6512 10.3141ZM104.097 0.621338H80.7322L74.2559 22.5353H86.3246L88.717 14.4828H100.271C106.821 14.4828 112.854 11.6679 113.995 7.8189C114.916 4.6848 112.046 0.621338 104.097 0.621338Z" fill="#004B93"/>
    <path fill-rule="evenodd" clip-rule="evenodd" d="M27.8552 22.5354L29.6578 16.4783H2.50189L0.699219 22.5354H27.8552Z" fill="#004B93"/>
    <path fill-rule="evenodd" clip-rule="evenodd" d="M32.1983 7.92587L33.339 4.11377H6.14608L5.04297 7.92587H32.1983Z" fill="#004B93"/>
    <path fill-rule="evenodd" clip-rule="evenodd" d="M30.173 14.6968L31.6824 9.67261H4.52652L3.01758 14.6968H30.173Z" fill="#004B93"/>
    <path fill-rule="evenodd" clip-rule="evenodd" d="M33.8526 2.36781L34.3678 0.621094H7.21239L6.69727 2.36781H33.8526Z" fill="#004B93"/>
    <path d="M154.839 9.497H154.841V9.9188H154.839M151.526 8.1828C152.369 8.9944 153.538 9.497 154.839 9.497V9.9188C153.419 9.9183 152.142 9.3697 151.219 8.4806L151.526 8.1828ZM150.164 5.0048C150.164 6.2473 150.683 7.3707 151.526 8.1828L151.219 8.4806C150.296 7.592 149.729 6.3628 149.729 5.0048H150.164ZM150.164 5.0037H149.729V5.0027H150.164V5.0037ZM151.526 1.79581C150.683 2.61169 150.164 3.74406 150.164 5.0037H149.729C149.729 3.62753 150.296 2.39035 151.218 1.49696L151.526 1.79581ZM154.84 0.476284C153.539 0.476804 152.369 0.978324 151.526 1.79581L151.218 1.49696C152.141 0.603553 153.419 0.0549734 154.84 0.0544434V0.476284ZM154.841 0.476284H154.84V0.0544434H154.841V0.476284ZM154.841 0.476284H154.84V0.0544434H154.841V0.476284ZM158.141 1.79526C157.294 0.978323 156.124 0.476804 154.841 0.476284V0.0544434C156.243 0.0549734 157.521 0.603533 158.448 1.49641L158.141 1.79526ZM159.516 5.0037C159.516 3.74356 158.989 2.61169 158.141 1.79526L158.448 1.49641C159.375 2.39035 159.952 3.62751 159.952 5.0037H159.516ZM159.516 5.0037H159.952V5.0048H159.516V5.0037ZM158.142 8.1817C158.989 7.3701 159.516 6.2468 159.516 5.0048H159.952C159.952 6.3629 159.375 7.592 158.448 8.48L158.142 8.1817ZM154.841 9.497C156.125 9.497 157.294 8.9944 158.142 8.1817L158.448 8.48C157.521 9.3697 156.243 9.9183 154.841 9.9188V9.497Z" fill="#004B93"/>
    <path fill-rule="evenodd" clip-rule="evenodd" d="M153.441 4.5768H155.355C155.98 4.5768 156.642 4.4346 156.937 3.61442C157.23 2.75951 156.532 2.68893 156.126 2.68893H154.067L153.441 4.5768ZM152.411 7.5703H151.602L153.441 2.04736H156.275C157.305 2.04736 158.225 2.36815 157.82 3.54384C157.562 4.3629 156.974 4.6474 156.532 4.8623C156.826 5.0045 157.121 5.1473 156.9 5.8958L156.642 6.8929C156.532 7.2137 156.532 7.3201 156.753 7.4634L156.716 7.5703H155.686C155.686 7.2137 155.942 6.3941 156.016 6.1797C156.164 5.753 156.238 5.2184 155.245 5.2184H153.22L152.411 7.5703Z" fill="#004B93"/>
</svg>
