<svg xmlns="http://www.w3.org/2000/svg" xml:space="preserve" viewBox=".45 .55 51.24 60.98">
    <path fill="#301506" fill-rule="evenodd" d="M1.78 18.73 2 43.9l5.66 6.99 16.96 8.98 20.84-10.2 4.33-10.31-.44-33.38-15.75-.44L17.2 8.2 2.22 16.85z"/>
    <path fill="#fab80a" d="M26.07.55C16.19.55 7.57 2.46.45 6.23V36.4c0 6.35 2.38 11.66 6.9 15.35 4.18 3.44 17.13 9.1 18.72 9.79 1.5-.66 14.6-6.4 18.73-9.79 4.5-3.7 6.9-9 6.9-15.35V6.23C44.56 2.46 35.94.55 26.06.55zM40.7 6.39c2.95.04 5.84.22 8.64.48v29.52c0 5.68-2.06 10.26-6.03 13.53-3.55 2.92-14.25 7.72-17.24 9.03-3.03-1.33-13.75-6.18-17.24-9.03-3.95-3.21-6.03-7.9-6.03-13.53V19.14C14.15 8.74 27.93 6.22 40.7 6.4zM26.74 20.13c-2.43 0-4.4.55-6.01 1.59v29.05h4.46v-9.39c.44.14 1.09.26 2 .26 4.95 0 7.8-4.46 7.8-10.97 0-6.5-2.93-10.54-8.25-10.54zm15.23 0c-2.93.09-6 2.21-5.98 5.82.01 2.37.67 4.14 4.34 6.3 1.96 1.15 2.75 1.9 2.79 3.3.04 1.56-1.04 2.5-2.67 2.5a7.11 7.11 0 0 1-4.27-1.82v4.1a9.76 9.76 0 0 0 4.9 1.38c4.4 0 6.37-3.1 6.46-5.96.08-2.6-.64-4.57-4.36-6.75-1.66-.98-2.98-1.62-2.93-3.24.04-1.59 1.36-2.14 2.62-2.13 1.56.01 3.06.87 4 1.83v-3.88a7.62 7.62 0 0 0-4.9-1.45zm-36.89.46v14c0 4.73 2.23 7.12 6.64 7.12 2.73 0 5.02-.63 6.72-1.79V20.6H14v16.8c-.48.33-1.2.54-2.1.54-2.05 0-2.36-1.87-2.36-3.13V20.59H5.08zm21.69 3.13c2.58 0 3.66 2.07 3.66 7.06 0 4.88-1.23 7.23-3.8 7.23a4.2 4.2 0 0 1-1.44-.27v-13.7c.36-.17.97-.32 1.58-.32z"/>
</svg>
